<svg version="1" xmlns="http://www.w3.org/2000/svg" width="666.667" height="666.667" viewBox="0 0 500.000000 500.000000"><path d="M250 250v250h250V0H250v250zm146.5-141.1c9.7 3.2 15.2 6.2 22.6 12.1 11.8 9.4 19.5 20.2 24.6 34.5l2.8 8v188l-2.8 8c-4 11.2-10.3 20.9-19.5 29.7-8.7 8.3-17.1 13.4-27.7 16.9-6.8 2.3-8.3 2.3-49.7 2.7l-42.8.3V105.9l42.8.3c41.6.4 42.9.4 49.7 2.7z"/><path d="M349 257.5V363h15.8c17.7 0 22.3-1 28.4-6 2-1.7 4.9-5.6 6.5-8.8l2.8-5.7v-170l-2.8-5.7c-1.6-3.3-4.5-7-6.7-8.8-6.5-5.1-10.5-6-28.1-6H349v105.5zM57 257.4V409h45V295h30.8l7.5 30.7c4.1 17 10.3 42.6 13.8 57.1l6.4 26.2h24.7c19.4 0 24.6-.3 24.3-1.3-.2-.6-7.9-30.4-17-66L176 276.8l5.4-5.8c7-7.6 11.8-15.6 15.3-25.5l2.8-8v-39c0-34.7-.2-39.7-1.8-45.5-6.7-23.7-21.9-38.7-45.2-44.6-6-1.5-13.2-1.8-51.2-2.1l-44.3-.4v151.5zm86.6-102.7c5.5 2.9 9 7.3 10.9 13.5 2.2 7.5 2.2 56.4 0 62.9-2 5.9-6.5 11.2-12.3 14.7-4.6 2.6-5.2 2.7-22.4 3l-17.8.4v-97.4l18.8.4c16.9.3 19.1.6 22.8 2.5z"/></svg>